PathFileType	4	(X/Y/Z)	25_coords_data.trc
DataRate	CameraRate	NumFrames	NumMarkers	Units	OrigDataRate	OrigDataStartFrame	OrigNumFrames
30.0	30.0	5	21	m	30.0	11	80
Frame#	Time	THUMB_TIP	THUMB_IP	THUMB_MCP	THUMB_CMC	INDEX_TIP	INDEX_DIP	INDEX_PIP	INDEX_MCP	MIDDLE_TIP	MIDDLE_DIP	MIDDLE_PIP	MIDDLE_MCP	RING_TIP	RING_DIP	RING_PIP	RING_MCP	PINKY_TIP	PINKY_DIP	PINKY_PIP	PINKY_MCP	WRIST
X1	Y1	Z1	X2	Y2	Z2	X3	Y3	Z3	X4	Y4	Z4	X5	Y5	Z5	X6	Y6	Z6	X7	Y7	Z7	X8	Y8	Z8	X9	Y9	Z9	X10	Y10	Z10	X11	Y11	Z11	X12	Y12	Z12	X13	Y13	Z13	X14	Y14	Z14	X15	Y15	Z15	X16	Y16	Z16	X17	Y17	Z17	X18	Y18	Z18	X19	Y19	Z19	X20	Y20	Z20	X21	Y21	Z21
9	0.33333333333333187	0.5333795819126695	-0.009182309860139348	-0.1494531713763993	0.5150967268687542	-0.013003627135018125	-0.13606904847917922	0.4903010279307919	-0.01950830806433157	-0.11841451817713622	0.47707637799951363	-0.026107365748999634	-0.07632590841309711	0.572111315077027	0.014047277399099278	-0.15783358094697458	0.557038107308815	0.01905804666030475	-0.14913354652248695	0.5364824755479033	0.02581620229767645	-0.13633498534199212	0.5018759737158097	0.02182804148515094	-0.11183762429475408	0.5880697899567155	0.013977114201076501	-0.13846394042782856	0.5738879497985221	0.021915398664287045	-0.13047275468924147	0.5510259441402495	0.032388177141015384	-0.11573982700128721	0.5134802391600344	0.025906495744416502	-0.09240625108991801	0.5916918409738103	0.011168307981382797	-0.11997144892771783	0.5782803292521059	0.018531187341011	-0.11043628448896053	0.5589694510348543	0.026872053038480836	-0.09710587110845154	0.5242805478498294	0.020956972258214135	-0.0771957568651106	0.590115602227571	0.006995732827953738	-0.10467623510185436	0.5768320431639302	0.00885408971213908	-0.09404168911748034	0.5595274130824408	0.010592980411149644	-0.0822799691803407	0.528663262867941	0.00711110005678095	-0.0639451882507891	0.4622830810018608	-0.023011742144276925	-0.051989820119430985
10	0.3666666666666651	0.5331267939043803	-0.009130258581077855	-0.14965375930410774	0.5148934038970034	-0.012954674604684024	-0.13620320798019264	0.49015146721988845	-0.019452071233594048	-0.11847074039916328	0.47700942482852526	-0.026112161028306935	-0.07636587220426244	0.57204095856301	0.014135383934566592	-0.15791282190833705	0.5569726357706057	0.019128362067907356	-0.14919411686779988	0.5364208742496169	0.025859501874832547	-0.13637511970405747	0.5018255265337169	0.021831248834092154	-0.11186856572648363	0.5880229932120791	0.013978346974023004	-0.138560686117165	0.573845519360779	0.0219018002692718	-0.13054706502094937	0.5509945595278006	0.03237812595000944	-0.1157995301441393	0.5134651972688461	0.025894058018662958	-0.09244034025026998	0.5916588306498013	0.011180538120724948	-0.12007507387558547	0.5782489784374445	0.018510383910418482	-0.11051216509519524	0.5589490799230936	0.02685252667498983	-0.09716665834455945	0.5242716712357179	0.020947867548088084	-0.07723344080890254	0.5900887884530054	0.00699322865471641	-0.10475343192095993	0.5768156213447062	0.008849065657835387	-0.09410547888138376	0.5595139757962655	0.010560299733386458	-0.08233531498045221	0.5286683006380937	0.007091315348245142	-0.06396702920381558	0.462283081001861	-0.023011742144276925	-0.051989820119430985
11	0.39999999999999825	0.5328639134868371	-0.009152607195831997	-0.14985471644675946	0.514660550053812	-0.012962842707341493	-0.13635954452966143	0.4899796589323646	-0.01944613375144777	-0.11853707133740582	0.4769367449356935	-0.026137696108076702	-0.07640637720945698	0.5719286076501084	0.014188962679807404	-0.15802236026237443	0.5568691275303526	0.019172665295011715	-0.1492830944599236	0.5363325372425488	0.02590366957058421	-0.13643973532794007	0.5017560076752119	0.021832082636459638	-0.11191379239159327	0.5879531158268071	0.013958982311337076	-0.13868929833495008	0.5737832275063034	0.021868594388502083	-0.1306486328293332	0.5509561608743305	0.032368271802063586	-0.11588071648373383	0.5134465571290909	0.025869152516300398	-0.09249398955616817	0.591610222809793	0.01115028245686056	-0.12019005938051575	0.5782068909938514	0.018466417702449833	-0.11060753041891003	0.5589301583626903	0.026815763292917016	-0.09723307767206169	0.5242623783223926	0.020936774508931832	-0.07727553894717565	0.5900508834136733	0.00697615655746564	-0.10484268597074092	0.5767873696795285	0.008817863520602542	-0.09418026040776112	0.5595030822394143	0.010563348930913374	-0.08238964094269924	0.5286860290222554	0.0070460003117091	-0.06398255152851473	0.462283081001861	-0.023011742144276925	-0.05198982011943104
12	0.43333333333333146	0.5325938044430605	-0.00917920928191407	-0.15004587946001818	0.5144094791724038	-0.012969227363096025	-0.13651938407520875	0.48978962420337535	-0.01942593585412511	-0.11860308823131632	0.4768668417711066	-0.02617099446138138	-0.07644391510620718	0.5718038030178015	0.014223266616317787	-0.1581510292194474	0.5567623780960087	0.019212249519705682	-0.1493837271309042	0.5362420971385241	0.02593702383236207	-0.1365110695626422	0.5016819951984666	0.021823363836265708	-0.11196899855530162	0.5878756692668887	0.013950955680183563	-0.1388467553422174	0.5737143167069605	0.021852229201776208	-0.13078288713828473	0.5509125838268563	0.03234821610491523	-0.11597326909481359	0.5134310207042565	0.025844954462573178	-0.09254277753151496	0.5915554795480749	0.011079031041934195	-0.12033529883687655	0.5781653796428494	0.018394104766660258	-0.11073348021070445	0.5589095589604424	0.026747458579719052	-0.09733143451160159	0.5242597324403298	0.020908554933492862	-0.07733099550801487	0.5900147847102684	0.006895124881179049	-0.10497771134233008	0.5767686279953095	0.008754370528726962	-0.0942967685981328	0.5594982653332223	0.010460100818149853	-0.08247995529251861	0.5287048118125254	0.006987502021099212	-0.06402493622280758	0.4622830810018608	-0.023011742144276925	-0.051989820119430985
13	0.4666666666666647	0.5323151986964605	-0.009158633131546967	-0.15024340978471362	0.514156062220444	-0.012934121779079377	-0.13667906505605965	0.48959183763143366	-0.019359145881745365	-0.11867523391874812	0.4767941461330679	-0.02616573015334167	-0.07648780092186724	0.571648911090096	0.01425456901122546	-0.15830265377970887	0.5566242051600625	0.01924357466578297	-0.1495067436906497	0.5361173220133797	0.025961464717109473	-0.13660916524093347	0.501586958394169	0.021826727171630034	-0.11202880666431592	0.587749716468605	0.01394134317236595	-0.13903783752636445	0.5735867765654807	0.021808332406744735	-0.1309432953103612	0.5508161130969398	0.03235041674907069	-0.11611862354597663	0.513367153533823	0.02583039014238464	-0.09264070622590409	0.5914627516628754	0.011091380286845864	-0.12054077549224934	0.5780799839270828	0.018397242813093295	-0.11092173705395392	0.5588414460166873	0.026749021423948638	-0.09749391399488971	0.524211717723001	0.020900847887940555	-0.07746139995899798	0.5899474229019436	0.006891000129049529	-0.10517667588262147	0.5767131056186096	0.008752292105082216	-0.09448142281296479	0.5594604574582478	0.010428879619425957	-0.08263460025324376	0.5286883335661607	0.006977577953980019	-0.06414005081336455	0.4622830810018608	-0.023011742144276925	-0.051989820119430985
